<svg width="24" height="24" viewBox="0 0 24 24" version="1.1" xmlns="http://www.w3.org/2000/svg" xmlns:xlink="http://www.w3.org/1999/xlink">
<title>linkedin</title>
<desc>Created using Figma</desc>
<g id="Canvas" transform="translate(-28323 1548)">
<g id="linkedin">
<g id="Vector">
<use xlink:href="#path0_fill" transform="translate(28325 -1546)" fill="#007BB6"/>
<mask id="mask0_outline_out">
<rect id="mask0_outline_inv" fill="white" x="-2" y="-2" width="24" height="24" transform="translate(28325 -1546)"/>
<use xlink:href="#path0_fill" fill="black" transform="translate(28325 -1546)"/>
</mask>
<g mask="url(#mask0_outline_out)">
<use xlink:href="#path1_stroke_2x" transform="translate(28325 -1546)" fill="#FFFFFF"/>
</g>
</g>
<g id="Vector">
<use xlink:href="#path2_fill" transform="translate(28327.7 -1543.25)" fill="#FFFFFF"/>
</g>
<g id="Vector">
<use xlink:href="#path3_fill" transform="translate(28332.8 -1538.74)" fill="#FFFFFF"/>
</g>
</g>
</g>
<defs>
<path id="path0_fill" d="M 18.5139 0L 1.47222 0C 0.666667 0 0 0.638889 0 1.44444L 0 18.5556C 0 19.3472 0.666667 20 1.47222 20L 18.5139 20C 19.3333 20 20 19.3472 20 18.5556L 20 1.44444C 20 0.638889 19.3333 0 18.5139 0Z"/>
<path id="path1_stroke_2x" d="M 18.5139 -2L 1.47222 -2L 1.47222 2L 18.5139 2L 18.5139 -2ZM 1.47222 -2C -0.387959 -2 -2 -0.514972 -2 1.44444L 2 1.44444C 2 1.79275 1.72129 2 1.47222 2L 1.47222 -2ZM -2 1.44444L -2 18.5556L 2 18.5556L 2 1.44444L -2 1.44444ZM -2 18.5556C -2 20.4887 -0.400626 22 1.47222 22L 1.47222 18C 1.73396 18 2 18.2057 2 18.5556L -2 18.5556ZM 1.47222 22L 18.5139 22L 18.5139 18L 1.47222 18L 1.47222 22ZM 18.5139 22C 20.3883 22 22 20.5008 22 18.5556L 18 18.5556C 18 18.1937 18.2784 18 18.5139 18L 18.5139 22ZM 22 18.5556L 22 1.44444L 18 1.44444L 18 18.5556L 22 18.5556ZM 22 1.44444C 22 -0.526989 20.3756 -2 18.5139 -2L 18.5139 2C 18.2911 2 18 1.80477 18 1.44444L 22 1.44444Z"/>
<path id="path2_fill" d="M 0.236111 4.75L 3.20833 4.75L 3.20833 14.2917L 0.236111 14.2917L 0.236111 4.75ZM 1.72222 -1.05964e-07C 2.66667 -1.05964e-07 3.44444 0.763889 3.44444 1.72222C 3.44444 2.66667 2.68056 3.44444 1.72222 3.44444C 0.777778 3.44444 5.29819e-08 2.66667 5.29819e-08 1.72222C 5.29819e-08 0.777778 0.777778 -1.05964e-07 1.72222 -1.05964e-07Z"/>
<path id="path3_fill" d="M -2.11928e-07 0.236111L 2.84722 0.236111L 2.84722 1.54167L 2.88889 1.54167C 3.27778 0.791667 4.25 -1.05964e-07 5.69445 -1.05964e-07C 8.69445 -1.05964e-07 9.25 1.97222 9.25 4.54167L 9.25 9.77778L 6.29167 9.77778L 6.29167 5.13889C 6.29167 4.02778 6.27778 2.61111 4.75 2.61111C 3.20833 2.61111 2.97222 3.81944 2.97222 5.05556L 2.97222 9.77778L -2.11928e-07 9.77778L -2.11928e-07 0.236111Z"/>
</defs>
</svg>
