<svg width="504" height="234" viewBox="0 0 504 234" version="1.1" xmlns="http://www.w3.org/2000/svg" xmlns:xlink="http://www.w3.org/1999/xlink">
<g id="Canvas" fill="none">
<g id="Group 61.2">
<g id="Line 2.1">
<path d="M 0 0L 459 0" stroke-width="2" transform="translate(503.021 232) scale(-1)" stroke="white"/>
</g>
<g id="Rectangle 6.2">
<path d="M 21.7918 108.766L 17.1719 0C 17.1719 0 14.6719 2.5 10.6719 2.5C 6.67188 2.5 4.35837 0.679199 4.35837 0.679199L 0 108.766" stroke-width="2" transform="translate(100.35 123.5)" stroke="white"/>
</g>
<g id="Group 19.1">
<g id="Rectangle 5">
<path d="M 0 0L 26.1508 0L 23.9716 71.9955L 17.4339 91.6306L 8.71694 91.6306L 2.17923 71.9955L 0 0Z" transform="matrix(0.990246 -0.139333 0.139014 0.99029 83.8672 18.6943)" fill="url(#paint0_linear)"/>
</g>
<g id="Ellipse">
<g mask="url(#path3_ins)" transform="matrix(0.990246 -0.139333 0.139014 0.99029 98.4629 106.971)">
<ellipse cx="10.8962" cy="10.9084" rx="10.8962" ry="10.9084" stroke-width="4" stroke="white"/>
</g>
</g>
<g id="Subtract">
<path fill-rule="evenodd" clip-rule="evenodd" d="M 88.8946 71.9953L 86.7157 0L 112.867 0.00020823L 110.687 71.9956L 104.518 90.5264C 103.663 90.1132 102.745 89.809 101.784 89.6309L 102.707 89.6306L 108.697 71.6417L 110.805 1.99993L 88.778 2.00014L 90.885 71.6418L 96.8744 89.6304L 97.7974 89.6306C 96.8356 89.8084 95.9192 90.1124 95.0644 90.5251L 88.8946 71.9953ZM 89.1614 97.9412L 69.4223 97.4335L 0 116.352L 7.63047 141.393L 75.7807 118.301L 91.332 107.236C 90.9114 106.719 90.5397 106.163 90.218 105.575L 74.8618 116.501L 8.94193 138.837L 2.5132 117.74L 69.6632 99.4406L 88.5966 99.9276L 88.91 100.955C 88.8983 100.757 88.8928 100.558 88.8933 100.357C 88.8935 99.5266 88.9853 98.7181 89.1614 97.9412ZM 106.446 108.995L 121.777 122.074L 173.568 144.872L 173.857 142.814L 122.85 120.361L 108.435 108.063L 109.865 104.52C 109.132 106.297 107.944 107.836 106.446 108.995ZM 109.929 104.361L 110.621 102.645L 129.524 103.824L 176.874 121.325L 177.158 119.298L 129.94 101.845L 110.683 100.644C 110.649 101.954 110.385 103.206 109.929 104.361Z" transform="matrix(0.990246 -0.139333 0.139014 0.99029 -2 30.7769)" fill="white"/>
</g>
</g>
<g id="Shape Copy 8.1">
<path fill-rule="evenodd" clip-rule="evenodd" d="M 43.9617 0.0339208C 42.9706 0.276258 42.0323 0.436455 41.1486 0.518016L 35.2445 1.04129C 29.6984 1.68564 25.2657 3.87312 21.9447 7.60559C 20.5516 9.10871 19.506 10.6664 18.8097 12.2774C 15.1939 6.23628 9.20629 3.73963 0.850955 4.78661C 0.581825 4.81334 0.366895 4.93397 0.208091 5.14909C 0.0460627 5.39094 -0.0207864 5.64597 0.00559239 5.91408C 0.327621 9.59268 1.01014 12.7203 2.05506 15.2976C 3.31432 18.3848 5.08221 20.5598 7.35876 21.8221C 10.3599 23.5131 14.1373 23.5534 18.6912 21.9425C 19.0121 22.8014 19.3205 23.4731 19.6143 23.9564L 21.0207 26.3728C 20.2447 28.3863 19.7353 30.3862 19.4944 32.3729L 21.5436 32.5747C 21.7852 30.5342 22.2927 28.5739 23.0701 26.6543C 24.6241 22.7076 27.1286 19.0431 30.5836 15.66L 32.9959 13.4451C 33.2081 13.2574 33.3167 13.0287 33.3158 12.7608C 33.3422 12.4917 33.2618 12.2499 33.0745 12.0355C 32.8872 11.8216 32.6597 11.7133 32.3918 11.7137C 32.1232 11.6867 31.8692 11.7674 31.6276 11.9553L 29.1782 14.2105C 26.0969 17.2173 23.7138 20.5056 22.0251 24.077L 21.3827 22.9892C 20.9007 22.0226 20.5256 21.1499 20.2164 20.2905C 20.0294 19.6997 19.9233 19.2162 19.8961 18.841L 19.8548 18.5991L 19.8566 18.4383L 19.8974 18.2369L 19.8562 18.1162C 19.7762 17.0425 19.8292 16.0491 20.0172 15.0958C 20.4458 13.0282 21.5834 10.9741 23.4321 8.93373C 26.431 5.60487 30.4369 3.63192 35.4461 3.0142L 41.3522 2.49052C 42.0488 2.43653 42.5565 2.36945 42.879 2.28896C 41.9939 7.63175 41.5933 11.4575 41.6734 13.7665L 41.6727 14.8942C 41.6467 16.183 41.5525 17.0561 41.392 17.5117C 40.6416 20.3046 39.022 22.5862 36.5291 24.358C 34.4412 25.8355 31.2396 26.7211 26.9281 27.016C 26.6583 27.0163 26.4303 27.1232 26.2441 27.3385C 26.028 27.526 25.9344 27.7676 25.9614 28.0631C 25.963 28.359 26.0825 28.6006 26.3239 28.7881C 26.5105 28.9766 26.753 29.0572 27.0456 29.0296C 31.7078 28.7615 35.271 27.7547 37.7333 26.0094C 40.5466 23.9958 42.4363 21.3384 43.4005 18.0362C 43.5862 17.3369 43.6939 16.3036 43.7198 14.9346L 43.6813 13.7264C 43.6534 11.3904 44.1215 7.33658 45.0876 1.56393L 45.0874 1.4031C 45.2481 1.10741 45.2197 0.799123 45.0062 0.476941C 44.7907 0.0740091 44.4438 -0.073442 43.9617 0.0339208ZM 17.8849 15.8619C 17.0276 15.0565 16.3576 14.466 15.875 14.0899C 14.3749 13.0691 12.888 12.2235 11.4163 11.5526C 11.1744 11.4188 10.9208 11.4051 10.6537 11.5126C 10.384 11.5931 10.1978 11.7678 10.0912 12.0357C 9.9566 12.2774 9.94257 12.5319 10.051 12.8013C 10.1302 13.0694 10.305 13.2578 10.5717 13.3649C 11.9919 14.009 13.3451 14.7879 14.6293 15.7005C 15.7813 16.6407 16.8402 17.6871 17.804 18.8421L 17.8844 19.0032C 17.8846 19.2446 17.9391 19.5796 18.0458 20.0097C 11.1069 22.4799 6.41896 20.655 3.98203 14.5327C 3.09805 12.5192 2.46892 9.91457 2.09459 6.71995C 9.7816 5.99516 15.0715 8.77403 17.9642 15.0561L 17.8849 15.8619Z" transform="matrix(0.998944 -0.045944 0.0474108 0.998875 415.023 98.0762)" fill="white"/>
</g>
<g id="Group 49">
<g id="Subtract_2">
<path fill-rule="evenodd" clip-rule="evenodd" d="M 25 1.99512L 211 1.99512C 216.523 1.99512 221 6.46094 221 11.9697L 221 49.8735L 223 49.8735L 223 11.9697C 223 5.35889 217.627 0 211 0L 25 0C 18.373 0 13 5.35889 13 11.9697L 13 139.646L 0 139.646L 0 147.625C 0 153.134 4.47656 157.6 10 157.6L 135 157.6L 135 155.605L 10 155.605C 5.58203 155.605 2 152.032 2 147.625L 2 141.641L 13 141.641L 25 141.641L 135 141.641L 135 139.646L 27 139.646L 27 13.9644C 27 12.8628 27.8945 11.9697 29 11.9697L 207 11.9697C 208.105 11.9697 209 12.8628 209 13.9644L 209 49.8735L 211 49.8735L 211 13.9644C 211 11.7607 209.209 9.97461 207 9.97461L 29 9.97461C 26.791 9.97461 25 11.7607 25 13.9644L 25 139.646L 15 139.646L 15 11.9697C 15 6.46094 19.4766 1.99512 25 1.99512Z" transform="translate(177.021 75.3999)" fill="white"/>
</g>
<g id="Line 2 (Stroke)">
<path fill-rule="evenodd" clip-rule="evenodd" d="M 5.325 2L 0 2L 0 0L 5.325 0L 5.325 2ZM 26.625 2L 15.975 2L 15.975 0L 26.625 0L 26.625 2ZM 47.925 2L 37.275 2L 37.275 0L 47.925 0L 47.925 2ZM 69.225 2L 58.575 2L 58.575 0L 69.225 0L 69.225 2ZM 90.525 2L 79.875 2L 79.875 0L 90.525 0L 90.525 2ZM 105.5 25.9367L 105.5 15.962L 107.5 15.962L 107.5 25.9367L 105.5 25.9367ZM 105.5 40.8987L 105.5 35.9114L 107.5 35.9114L 107.5 40.8987L 105.5 40.8987Z" transform="translate(234.521 35)" fill="white"/>
</g>
</g>
<g id="Rectangle 11">
<rect width="33" height="102" transform="translate(427.021 130)" fill="url(#paint1_linear)"/>
</g>
<g id="Group 48">
<g id="Rectangle 8.6">
<path fill-rule="evenodd" clip-rule="evenodd" d="M 143 1L 6 1C 3.23858 1 1 3.23858 1 6L 1 34C 1 34.5523 1.44772 35 2 35L 143 35C 143.552 35 144 34.5523 144 34L 144 2C 144 1.44772 143.552 1 143 1Z" stroke-width="2" stroke-miterlimit="8" transform="translate(316.021 197)" stroke="white"/>
</g>
<g id="Rectangle 8.7">
<path fill-rule="evenodd" clip-rule="evenodd" d="M 110.258 1L 6 1C 3.23858 1 1 3.23858 1 6L 1 34C 1 34.5523 1.44772 35 2 35L 110.258 35C 110.81 35 111.258 34.5523 111.258 34L 111.258 2C 111.258 1.44772 110.81 1 110.258 1Z" stroke-width="2" stroke-miterlimit="8" transform="translate(316.021 197)" stroke="white"/>
</g>
<g id="Ellipse 3.11">
<circle cx="4" cy="4" r="4" transform="translate(363.021 211)" fill="white"/>
</g>
<g id="Ellipse 3.12">
<circle cx="4" cy="4" r="4" transform="translate(346.021 211)" fill="white"/>
</g>
<g id="Ellipse 3.13">
<circle cx="4" cy="4" r="4" transform="translate(328.021 211)" fill="white"/>
</g>
</g>
<g id="Group 48.1">
<g id="Rectangle 8.6_2">
<path fill-rule="evenodd" clip-rule="evenodd" d="M 143 1L 6 1C 3.23858 1 1 3.23858 1 6L 1 34C 1 34.5523 1.44772 35 2 35L 143 35C 143.552 35 144 34.5523 144 34L 144 2C 144 1.44772 143.552 1 143 1Z" stroke-width="2" stroke-miterlimit="8" transform="translate(316.021 163)" stroke="white"/>
</g>
<g id="Rectangle 8.7_2">
<path fill-rule="evenodd" clip-rule="evenodd" d="M 110.258 1L 6 1C 3.23858 1 1 3.23858 1 6L 1 34C 1 34.5523 1.44772 35 2 35L 110.258 35C 110.81 35 111.258 34.5523 111.258 34L 111.258 2C 111.258 1.44772 110.81 1 110.258 1Z" stroke-width="2" stroke-miterlimit="8" transform="translate(316.021 163)" stroke="white"/>
</g>
<g id="Ellipse 3.11_2">
<circle cx="4" cy="4" r="4" transform="translate(363.021 177)" fill="white"/>
</g>
<g id="Ellipse 3.12_2">
<circle cx="4" cy="4" r="4" transform="translate(346.021 177)" fill="white"/>
</g>
<g id="Ellipse 3.13_2">
<circle cx="4" cy="4" r="4" transform="translate(328.021 177)" fill="white"/>
</g>
</g>
<g id="Group 48.2">
<g id="Rectangle 8.6_3">
<path fill-rule="evenodd" clip-rule="evenodd" d="M 143 1L 6 1C 3.23858 1 1 3.23858 1 6L 1 34C 1 34.5523 1.44772 35 2 35L 143 35C 143.552 35 144 34.5523 144 34L 144 2C 144 1.44772 143.552 1 143 1Z" stroke-width="2" stroke-miterlimit="8" transform="translate(316.021 129)" stroke="white"/>
</g>
<g id="Rectangle 8.7_3">
<path fill-rule="evenodd" clip-rule="evenodd" d="M 110 1L 6 1C 3.23858 1 1 3.23858 1 6L 1 34C 1 34.5523 1.44772 35 2 35L 110 35C 110.552 35 111 34.5523 111 34L 111 2C 111 1.44772 110.552 1 110 1Z" stroke-width="2" stroke-miterlimit="8" transform="translate(316.021 129)" stroke="white"/>
</g>
<g id="Ellipse 3.11_3">
<circle cx="4" cy="4" r="4" transform="translate(363.021 143)" fill="white"/>
</g>
<g id="Ellipse 3.12_3">
<circle cx="4" cy="4" r="4" transform="translate(346.021 143)" fill="white"/>
</g>
<g id="Ellipse 3.13_3">
<circle cx="4" cy="4" r="4" transform="translate(328.021 143)" fill="white"/>
</g>
</g>
<g id="Group 50">
<g id="Rectangle 9">
<rect x="1" y="1" width="50" height="36" stroke-width="2" transform="translate(234.021 118)" stroke="white"/>
</g>
<g id="Rectangle 9.2">
<rect x="1" y="1" width="18" height="14" stroke-width="2" transform="translate(220.021 179)" stroke="white"/>
</g>
<g id="Rectangle 9.3">
<rect x="1" y="1" width="18" height="14" stroke-width="2" transform="translate(250.021 179)" stroke="white"/>
</g>
<g id="Rectangle 9.4">
<rect x="1" y="1" width="18" height="14" stroke-width="2" transform="translate(279.021 179)" stroke="white"/>
</g>
<g id="Rectangle 9.1">
<path d="M 58.303 15.8416L 58.303 0L 0 0L 0 15.8416" stroke-width="2" transform="translate(230.021 165.109)" stroke="white"/>
</g>
<g id="Line 2">
<path d="M 0 0L 26.9307 0" stroke-width="2" transform="matrix(0 1 -1 0 260.021 154.02)" stroke="white"/>
</g>
</g>
<g id="Union">
<path fill-rule="evenodd" clip-rule="evenodd" d="M 15.0605 19.3433C 15.7305 8.54932 24.7715 0 35.8281 0C 42.6992 0 48.793 3.30322 52.582 8.39551C 55.2559 6.80762 58.3867 5.89453 61.7305 5.89453C 70.1074 5.89453 77.1348 11.6221 79.0488 19.3433L 79.6719 19.3433C 87.5859 19.3433 94 25.7583 94 33.6714C 94 41.585 87.5859 48 79.6719 48L 14.3281 48C 6.41406 48 0 41.585 0 33.6714C 0 25.7583 6.41406 19.3433 14.3281 19.3433L 15.0605 19.3433Z" transform="translate(140.021 1)" fill="url(#paint2_linear)"/>
<path d="M 15.0605 19.3433C 15.7305 8.54932 24.7715 0 35.8281 0C 42.6992 0 48.793 3.30322 52.582 8.39551C 55.2559 6.80762 58.3867 5.89453 61.7305 5.89453C 70.1074 5.89453 77.1348 11.6221 79.0488 19.3433L 79.6719 19.3433C 87.5859 19.3433 94 25.7583 94 33.6714C 94 41.585 87.5859 48 79.6719 48L 14.3281 48C 6.41406 48 0 41.585 0 33.6714C 0 25.7583 6.41406 19.3433 14.3281 19.3433L 15.0605 19.3433Z" stroke-width="2" transform="translate(140.021 1)" stroke="white"/>
</g>
<g id="Union_2">
<path d="M 15.0605 19.3433C 15.7305 8.54932 24.7715 0 35.8281 0C 42.6992 0 48.793 3.30322 52.582 8.39551C 55.2559 6.80762 58.3867 5.89453 61.7305 5.89453C 70.1074 5.89453 77.1348 11.6221 79.0488 19.3433L 79.6719 19.3433C 87.5859 19.3433 94 25.7583 94 33.6714C 94 41.585 87.5859 48 79.6719 48L 14.3281 48C 6.41406 48 0 41.585 0 33.6714C 0 25.7583 6.41406 19.3433 14.3281 19.3433L 15.0605 19.3433Z" stroke-width="2" transform="translate(140.021 1)" stroke="white"/>
</g>
<g id="Ellipse 4.2">
<path d="M 41.5953 20.6316C 41.5953 9.23707 32.2801 0 20.7891 0C 9.58266 0 0.445496 8.78542 0 19.7895" stroke-width="2" stroke-linecap="round" transform="translate(155.061 1)" stroke="white"/>
</g>
<g id="Ellipse 4.3">
<path d="M 27.0249 17.6842C 27.0249 7.91749 19.0404 0 9.19102 0C 5.82891 0 2.6841 0.92256 0 2.52632" stroke-width="2" stroke-linecap="round" transform="translate(192.561 6.89453)" stroke="white"/>
</g>
<g id="Ellipse 5.2">
<circle cx="2" cy="2" r="2" transform="translate(427.021 67) scale(-1 1)" fill="#E5E5E5"/>
<g mask="url(#path38_ins)" transform="translate(427.021 67) scale(-1 1)">
<circle cx="2" cy="2" r="2" stroke-width="4" stroke="white"/>
</g>
</g>
<g id="Ellipse 5.3">
<circle cx="7" cy="7" r="6" stroke-width="2" transform="translate(334.021 28)" stroke="white"/>
</g>
<g id="Ellipse 5">
<circle cx="8" cy="8" r="7" stroke-width="2" transform="translate(9.02148 201)" stroke="white"/>
</g>
<g id="Subtract_3">
<path fill-rule="evenodd" clip-rule="evenodd" d="M 4.74023 27.8257C 3.10156 27.519 1.51953 27.2354 0 26.9731L 0 24.9438C 1.63281 25.2241 3.33594 25.5288 5.10742 25.8599C 6.52344 26.1245 7.98438 26.4067 9.48438 26.7065C 9.25781 27.3247 9.10547 27.978 9.03711 28.6567C 7.56445 28.3628 6.13086 28.0859 4.74023 27.8257ZM 24.5508 32.1006C 39.1211 35.6587 56.1016 40.7134 74.248 47.8721C 78.9629 49.7319 83.5117 51.6206 87.8945 53.5239L 92.8555 53.5239C 87.1855 50.9907 81.2285 48.4761 74.9824 46.0117C 56.7188 38.8062 39.6289 33.7212 24.9688 30.144C 24.9102 30.8242 24.7676 31.4795 24.5508 32.1006ZM 25.1797 6.65039C 15.8965 4.78516 7.3125 3.24756 0 2.02734L 0 0C 7.40039 1.23193 16.125 2.79102 25.5742 4.68945C 49.4316 9.48193 77.9609 16.4448 101.445 25.7627L 101.361 27.8813C 77.9395 18.5059 49.2402 11.4839 25.1797 6.65039ZM 121.453 37.0859L 121.361 34.8022C 133.303 40.7705 144.529 47.1499 154.836 53.5239L 151.01 53.5239C 141.809 47.9238 131.908 42.3491 121.453 37.0859Z" transform="translate(0.0234375 179.541)" fill="white"/>
</g>
<g id="Ellipse 5.1">
<circle cx="6" cy="6" r="5" stroke-width="2" transform="translate(150.021 183)" stroke="white"/>
</g>
<g id="Subtract_4" opacity="0.5">
<path fill-rule="evenodd" clip-rule="evenodd" d="M 123.076 0C 118.215 0.873047 112.996 1.85645 107.537 2.95361C 90.4727 6.38135 71.0176 10.9194 52.7285 16.6357L 52.8125 18.7056C 71.1406 12.9487 90.7227 8.37158 107.932 4.91455C 113.244 3.84717 118.328 2.88721 123.076 2.03223L 123.076 0ZM 123.076 25.0811C 114.766 26.7549 105.225 28.9766 94.8027 31.9165C 94.9805 32.4844 95.0762 33.0889 95.0762 33.7153L 95.0723 33.9185C 105.381 31.002 114.83 28.7915 123.076 27.1211L 123.076 25.0811ZM 123.076 52.2495C 112.188 55.2144 98.9297 59.5229 83.6172 65.7798C 80.125 67.207 76.7656 68.6201 73.5371 70.0132L 75.7031 71.2583C 78.4961 70.062 81.3867 68.8521 84.373 67.6313C 99.3633 61.5063 112.363 57.2622 123.076 54.3232L 123.076 52.2495ZM 35.6348 22.4922C 30.3613 24.481 25.3027 26.5825 20.5664 28.7993C 13.4766 32.1177 6.60742 35.6064 0 39.186L 2.76953 39.9663C 8.7832 36.7471 15.0078 33.6089 21.4141 30.6108C 25.8652 28.5278 30.6055 26.5459 35.5469 24.6636L 35.6348 22.4922ZM 53.998 48.0894L 53.9121 45.9648C 55.3027 45.3994 56.709 44.8364 58.1289 44.2759C 66.832 40.8423 75.2695 37.8906 83.3027 35.3535C 83.4902 36.0146 83.7871 36.6289 84.1738 37.1758C 76.1016 39.7183 67.6172 42.6826 58.8633 46.1362C 57.2207 46.7842 55.5996 47.4351 53.998 48.0894Z" transform="translate(66.9453 155.285)" fill="white"/>
</g>
</g>
</g>
<defs>

<linearGradient id="paint0_linear" x2="1" gradientUnits="userSpaceOnUse" gradientTransform="matrix(0 91.6306 -26.1508 0 26.1508 0)">
<stop stop-color="white" stop-opacity="0.28"/>
<stop offset="1" stop-color="white" stop-opacity="0"/>
<stop offset="1" stop-color="white" stop-opacity="0"/>
</linearGradient>
<linearGradient id="paint1_linear" x2="1" gradientUnits="userSpaceOnUse" gradientTransform="matrix(42.5 125.5 -40.6029 13.75 17.8015 0.125001)">
<stop stop-color="white" stop-opacity="0.34"/>
<stop offset="0.407256" stop-color="white" stop-opacity="0"/>
</linearGradient>
<linearGradient id="paint2_linear" x2="1" gradientUnits="userSpaceOnUse" gradientTransform="matrix(0 48 -94 0 94 0)">
<stop stop-color="white" stop-opacity="0.24"/>
<stop offset="1" stop-color="white" stop-opacity="0"/>
</linearGradient>

<mask id="path3_ins" fill="white">
<ellipse cx="10.8962" cy="10.9084" rx="10.8962" ry="10.9084"/>
</mask>
<mask id="path38_ins" fill="white">
<circle cx="2" cy="2" r="2"/>
</mask>

</defs>
</svg>

